Coordinates
version=1
nRows=6
nColumns=36
inDegrees=yes

Units are S.I. units (second, meters, Newtons, ...)
If the header above contains a line with 'inDegrees', this indicates whether rotational values are in degrees (yes) or radians (no).

endheader
time	pelvis_tilt	pelvis_list	pelvis_rotation	pelvis_tx	pelvis_ty	pelvis_tz	hip_flexion_r	hip_adduction_r	hip_rotation_r	knee_angle_r	knee_angle_r_beta	ankle_angle_r	subtalar_angle_r	mtp_angle_r	hip_flexion_l	hip_adduction_l	hip_rotation_l	knee_angle_l	knee_angle_l_beta	ankle_angle_l	subtalar_angle_l	mtp_angle_l	lumbar_extension	lumbar_bending	lumbar_rotation	arm_flex_r	arm_add_r	arm_rot_r	elbow_flex_r	pro_sup_r	arm_flex_l	arm_add_l	arm_rot_l	elbow_flex_l	pro_sup_l
      2.35000000	    -11.55463596	     -0.41604838	      4.15525438	      0.95593563	      1.20449742	     -0.05720669	      7.65951043	     -4.38626887	    -16.12495164	      0.52161567	      0.00910391	    -30.90718421	     10.65766300	     -7.49999987	     10.33895905	     -3.96848264	    -20.69009744	      1.86402132	      0.03253331	    -31.34902940	      6.89157118	     -7.49999987	      3.46975630	     -0.46226780	    -14.27901338	     62.26837837	    -29.86373210	     61.04084742	     32.60161538	     87.59537165	    106.54455087	   -120.33355917	    103.05415469	     86.51430448	     86.13375117
      2.36666670	    -10.78574529	     -0.36118894	      3.77624883	      0.95348992	      1.23770712	     -0.05186539	      6.29793369	     -4.06492721	    -17.74468974	      0.62281695	      0.01087021	    -32.56139711	      9.92058370	     -7.49999987	      8.38284152	     -4.06853895	    -20.25340222	      2.75249718	      0.04804014	    -33.25143877	      6.23788532	     -7.49999987	      2.76591357	      0.16875919	    -16.19968136	     58.00787505	    -33.21599001	     59.32586880	     16.32612724	     87.14624234	    118.42555709	   -122.07373053	    113.59561687	     58.00149995	     86.09105405
      2.38333330	    -10.03190889	     -0.47209514	      3.74859562	      0.95240807	      1.26367696	     -0.04688479	      5.63771333	     -3.39829677	    -16.47491157	      1.02940180	      0.01796645	    -32.81838383	      8.70423630	     -7.49999987	      7.61119635	     -4.52520409	    -17.76138382	      4.88462708	      0.08525283	    -32.81784533	      5.60835211	     -7.49999987	      1.54487751	      1.01839021	    -16.18524349	     52.31152578	    -36.79016478	     33.53272343	      4.21062820	    104.88150992	    129.65271581	   -120.31873927	    124.93767932	     31.59144091	     91.41642405
      2.40000000	     -9.44724239	     -0.77470388	      4.08678685	      0.95710524	      1.29389833	     -0.04535406	      5.63001836	     -2.74329159	    -15.62066652	      0.94256365	      0.01645084	    -32.34243446	      8.35827596	     -7.49999987	      7.54136895	     -5.06633190	    -14.76929227	      6.71308133	      0.11716537	    -32.11207267	      5.18821851	     -7.49999987	     -0.83106862	      0.69620404	    -16.22736341	     43.77191727	    -42.20846506	     22.32189802	      1.95866746	    103.07772898	    123.73390127	   -128.39954794	    125.91164736	     31.75874535	     87.25380245
      2.41666670	     -8.87383955	     -0.78584836	      4.18759901	      0.96114330	      1.32352162	     -0.04407873	      6.00697311	     -2.55683471	    -14.94075620	      0.56125680	      0.00979578	    -30.27252311	      8.37959369	     -7.49999987	      7.82390409	     -5.22233073	    -12.70524820	      7.84076873	      0.13684723	    -30.93829406	      4.16932390	     -7.49999987	     -2.70276603	     -0.57468014	    -16.78529499	     33.21509099	    -43.74553183	     12.65174167	      1.77078539	     97.05179107	    120.87447939	   -136.48949249	    129.15026412	     30.58664724	     85.19321706
      2.43333330	     -8.58077545	     -0.29118706	      4.07129520	      0.96608264	      1.34996112	     -0.04101270	      6.82257913	     -2.99146223	    -15.54946703	      0.34893046	      0.00608999	    -27.94679240	      8.50079137	     -7.49999987	      8.63876461	     -4.56350883	    -12.51483615	      7.47819147	      0.13051906	    -30.38870803	      3.23134126	     -7.49999987	     -4.41182763	     -2.08813057	    -17.40494974	     23.17494783	    -43.56847155	     12.10912511	      2.22729880	     93.74702877	    119.25454099	   -145.08822377	    131.16184503	     30.72904621	     83.25845724
